<svg id="Layer_3" enable-background="new 0 0 64 64" height="512" viewBox="0 0 64 64" width="512" xmlns="http://www.w3.org/2000/svg"><g><path fill="#232020" d="m58.144 19.434c1.895 3.936 2.856 8.164 2.856 12.566 0 15.991-13.01 29-29 29s-29-13.009-29-29 13.01-29 29-29c7.855 0 15.21 3.09 20.71 8.7l1.428-1.4c-5.878-5.997-13.741-9.3-22.138-9.3-17.094 0-31 13.907-31 31s13.906 31 31 31 31-13.907 31-31c0-4.705-1.027-9.225-3.054-13.434z"/><path fill="#232020" d="m49.308 13.96 1.385-1.443c-5.05-4.847-11.689-7.517-18.693-7.517-.348 0-.693.007-1.038.02l.076 1.999c.319-.013.64-.019.962-.019 6.484 0 12.632 2.472 17.308 6.96z"/><path fill="#F67164" d="m19.707 28.293c-.391-.391-1.023-.391-1.414 0l-3 3c-.391.391-.391 1.023 0 1.414l11.293 11.293c.646.645 1.503 1 2.414 1s1.769-.355 2.414-1l31.293-31.293c.391-.391.391-1.023 0-1.414l-3-3c-.391-.391-1.023-.391-1.414 0l-29.293 29.293zm39.293-17.879 1.586 1.586-30.586 30.586c-.536.535-1.466.534-2 0l-10.586-10.586 1.586-1.586 9.293 9.293c.391.391 1.023.391 1.414 0z"/><path fill="#232020" d="m46.992 54.458c.581-.389 1.159-.808 1.716-1.247l-1.236-1.571c-.518.407-1.053.796-1.591 1.156z"/><path fill="#232020" d="m43.294 56.532c.643-.297 1.279-.621 1.891-.964l-.979-1.744c-.565.317-1.154.618-1.75.892z"/><path fill="#232020" d="m35.153 58.817c.703-.082 1.408-.192 2.097-.328l-.389-1.962c-.637.126-1.289.228-1.938.304z"/><path fill="#232020" d="m39.313 57.997c.681-.191 1.36-.412 2.02-.655l-.693-1.876c-.609.225-1.237.429-1.867.605z"/><path fill="#232020" d="m58.815 35.174-1.986-.23c-.075.644-.178 1.296-.305 1.938l1.961.39c.139-.695.249-1.401.33-2.098z"/><path fill="#232020" d="m48.964 50.364 1.357 1.469c.519-.479 1.022-.983 1.5-1.5l-1.467-1.358c-.443.478-.911.945-1.39 1.389z"/><path fill="#232020" d="m56.523 43.311-1.814-.84c-.277.598-.578 1.186-.895 1.749l1.744.98c.342-.608.667-1.243.965-1.889z"/><path fill="#232020" d="m54.449 47.006-1.662-1.111c-.36.539-.749 1.073-1.155 1.587l1.568 1.24c.44-.556.86-1.133 1.249-1.716z"/><path fill="#232020" d="m57.993 39.334-1.926-.542c-.176.624-.38 1.252-.606 1.867l1.877.691c.245-.663.465-1.342.655-2.016z"/><path fill="#232020" d="m59 32c0-3.598-.696-7.092-2.07-10.385l-1.846.771c1.271 3.047 1.916 6.281 1.916 9.614 0 .322-.006.643-.018.962l1.998.076c.014-.344.02-.69.02-1.038z"/><path fill="#232020" d="m18.119 11.205-1.111-1.662c-.581.389-1.159.808-1.716 1.247l1.236 1.571c.518-.407 1.053-.796 1.591-1.156z"/><path fill="#232020" d="m5.185 28.826 1.986.23c.075-.644.178-1.296.305-1.938l-1.961-.39c-.139.695-.249 1.401-.33 2.098z"/><path fill="#232020" d="m24.687 6.003c-.681.191-1.36.412-2.02.655l.693 1.876c.609-.225 1.237-.429 1.867-.605z"/><path fill="#232020" d="m21.544 9.285-.838-1.816c-.643.297-1.279.621-1.891.964l.979 1.744c.565-.318 1.154-.618 1.75-.892z"/><path fill="#232020" d="m28.847 5.183c-.703.082-1.408.192-2.097.328l.389 1.962c.637-.126 1.289-.228 1.938-.304z"/><path fill="#232020" d="m6.007 24.666 1.926.542c.176-.624.38-1.252.606-1.867l-1.877-.691c-.245.663-.465 1.342-.655 2.016z"/><path fill="#232020" d="m7.477 20.689 1.814.84c.277-.598.578-1.186.895-1.749l-1.745-.98c-.341.608-.666 1.243-.964 1.889z"/><path fill="#232020" d="m15.036 13.636-1.357-1.469c-.519.479-1.022.983-1.5 1.5l1.467 1.358c.443-.478.911-.945 1.39-1.389z"/><path fill="#232020" d="m9.551 16.994 1.662 1.111c.36-.539.749-1.073 1.155-1.587l-1.568-1.24c-.44.556-.86 1.133-1.249 1.716z"/><path fill="#232020" d="m5 32c0 14.888 12.112 27 27 27 .348 0 .693-.007 1.038-.02l-.076-1.999c-.319.013-.64.019-.962.019-13.785 0-25-11.215-25-25 0-.322.006-.643.018-.962l-1.998-.076c-.014.344-.02.69-.02 1.038z"/></g></svg>