<svg height="512" viewBox="0 0 256 256" width="512" xmlns="http://www.w3.org/2000/svg"><path d="m178.1 45.531h-100.2a21.4 21.4 0 1 0 0 42.8h100.2a21.4 21.4 0 1 0 0-42.8zm0 37.8h-100.2a16.4 16.4 0 1 1 0-32.8h100.2a16.4 16.4 0 1 1 0 32.8z" fill="#232020"/><path d="m178.1 106.6h-100.2a21.4 21.4 0 1 0 0 42.8h100.2a21.4 21.4 0 1 0 0-42.8zm0 37.8h-100.2a16.4 16.4 0 1 1 0-32.8h100.2a16.4 16.4 0 1 1 0 32.8z" fill="#232020"/><path d="m178.1 167.667h-100.2a21.4 21.4 0 1 0 0 42.8h100.2a21.4 21.4 0 1 0 0-42.8zm0 37.8h-100.2a16.4 16.4 0 1 1 0-32.8h100.2a16.4 16.4 0 1 1 0 32.8z" fill="#232020"/><path d="m221.333 65.716h-14.381a2.5 2.5 0 0 0 0 5h14.381a7.508 7.508 0 0 1 7.5 7.5v39.784a7.508 7.508 0 0 1 -7.5 7.5h-8.346l8.814-8.813a2.5 2.5 0 1 0 -3.535-3.536l-13.081 13.081a2.5 2.5 0 0 0 0 3.536l13.081 13.081a2.5 2.5 0 1 0 3.535-3.536l-8.814-8.813h8.346a12.514 12.514 0 0 0 12.5-12.5v-39.784a12.514 12.514 0 0 0 -12.5-12.5z" fill="#232020"/><path d="m32.952 130.5h14.381a2.5 2.5 0 0 0 0-5h-14.381a12.514 12.514 0 0 0 -12.5 12.5v39.784a12.514 12.514 0 0 0 12.5 12.5h8.348l-8.816 8.816a2.5 2.5 0 0 0 3.536 3.535l13.08-13.083a2.5 2.5 0 0 0 0-3.535l-13.08-13.081a2.5 2.5 0 0 0 -3.536 3.535l8.814 8.813h-8.346a7.508 7.508 0 0 1 -7.5-7.5v-39.784a7.508 7.508 0 0 1 7.5-7.5z" fill="#232020"/><g fill="#C50000"><path d="m156.9 64.32h-33.962a2.5 2.5 0 0 1 0-5h33.962a2.5 2.5 0 1 1 0 5z"/><path d="m112.938 64.32h-19.209a2.5 2.5 0 0 1 0-5h19.209a2.5 2.5 0 1 1 0 5z"/><path d="m162.271 75.111h-16.333a2.5 2.5 0 0 1 0-5h16.333a2.5 2.5 0 0 1 0 5z"/><path d="m135.938 75.111h-42.209a2.5 2.5 0 0 1 0-5h42.209a2.5 2.5 0 0 1 0 5z"/><path d="m156.9 125.1h-33.962a2.5 2.5 0 0 1 0-5h33.962a2.5 2.5 0 0 1 0 5z"/><path d="m112.938 125.1h-19.209a2.5 2.5 0 0 1 0-5h19.209a2.5 2.5 0 0 1 0 5z"/><path d="m162.271 135.9h-16.333a2.5 2.5 0 0 1 0-5h16.333a2.5 2.5 0 0 1 0 5z"/><path d="m135.938 135.9h-42.209a2.5 2.5 0 0 1 0-5h42.209a2.5 2.5 0 0 1 0 5z"/><path d="m156.9 185.889h-33.962a2.5 2.5 0 1 1 0-5h33.962a2.5 2.5 0 0 1 0 5z"/><path d="m112.938 185.889h-19.209a2.5 2.5 0 1 1 0-5h19.209a2.5 2.5 0 0 1 0 5z"/><path d="m162.271 196.68h-16.333a2.5 2.5 0 0 1 0-5h16.333a2.5 2.5 0 1 1 0 5z"/><path d="m135.938 196.68h-42.209a2.5 2.5 0 1 1 0-5h42.209a2.5 2.5 0 0 1 0 5z"/></g></svg>