<?xml version="1.0" encoding="UTF-8" standalone="no"?>
<svg
   xmlns:dc="http://purl.org/dc/elements/1.1/"
   xmlns:cc="http://creativecommons.org/ns#"
   xmlns:rdf="http://www.w3.org/1999/02/22-rdf-syntax-ns#"
   xmlns:svg="http://www.w3.org/2000/svg"
   xmlns="http://www.w3.org/2000/svg"
   xmlns:sodipodi="http://sodipodi.sourceforge.net/DTD/sodipodi-0.dtd"
   xmlns:inkscape="http://www.inkscape.org/namespaces/inkscape"
   inkscape:version="1.0 (4035a4f, 2020-05-01)"
   sodipodi:docname="dependency.svg"
   id="svg126"
   version="1.1"
   width="426.76199"
   viewBox="0 0 213.381 164.936"
   height="329.87201">
  <metadata
     id="metadata132">
    <rdf:RDF>
      <cc:Work
         rdf:about="">
        <dc:format>image/svg+xml</dc:format>
        <dc:type
           rdf:resource="http://purl.org/dc/dcmitype/StillImage" />
        <dc:title></dc:title>
      </cc:Work>
    </rdf:RDF>
  </metadata>
  <defs
     id="defs130" />
  <sodipodi:namedview
     inkscape:current-layer="svg126"
     inkscape:window-maximized="0"
     inkscape:window-y="0"
     inkscape:window-x="1680"
     inkscape:cy="145.20352"
     inkscape:cx="172.33797"
     inkscape:zoom="0.91210938"
     fit-margin-bottom="0"
     fit-margin-right="0"
     fit-margin-left="0"
     fit-margin-top="0"
     showgrid="false"
     id="namedview128"
     inkscape:window-height="720"
     inkscape:window-width="1280"
     inkscape:pageshadow="2"
     inkscape:pageopacity="0"
     guidetolerance="10"
     gridtolerance="10"
     objecttolerance="10"
     borderopacity="1"
     bordercolor="#666666"
     pagecolor="#ffffff" />
  <path
     id="path90"
     fill="#232020"
     d="m 157.648,0 h -100.2 a 21.4,21.4 0 1 0 0,42.8 h 100.2 a 21.4,21.4 0 1 0 0,-42.8 z m 0,37.8 h -100.2 a 16.4,16.4 0 1 1 0,-32.8 h 100.2 a 16.4,16.4 0 1 1 0,32.8 z" />
  <path
     id="path92"
     fill="#232020"
     d="m 157.648,61.069 h -100.2 a 21.4,21.4 0 1 0 0,42.8 h 100.2 a 21.4,21.4 0 1 0 0,-42.8 z m 0,37.8 h -100.2 a 16.4,16.4 0 1 1 0,-32.8 h 100.2 a 16.4,16.4 0 1 1 0,32.8 z" />
  <path
     id="path94"
     fill="#232020"
     d="m 157.648,122.136 h -100.2 a 21.4,21.4 0 1 0 0,42.8 h 100.2 a 21.4,21.4 0 1 0 0,-42.8 z m 0,37.8 h -100.2 a 16.4,16.4 0 1 1 0,-32.8 h 100.2 a 16.4,16.4 0 1 1 0,32.8 z" />
  <path
     id="path96"
     fill="#232020"
     d="M 200.881,20.185 H 186.5 a 2.5,2.5 0 0 0 0,5 h 14.381 a 7.508,7.508 0 0 1 7.5,7.5 v 39.784 a 7.508,7.508 0 0 1 -7.5,7.5 h -8.346 l 8.814,-8.813 a 2.5,2.5 0 1 0 -3.535,-3.536 l -13.081,13.081 a 2.5,2.5 0 0 0 0,3.536 l 13.081,13.081 a 2.5,2.5 0 1 0 3.535,-3.536 l -8.814,-8.813 h 8.346 a 12.514,12.514 0 0 0 12.5,-12.5 V 32.685 a 12.514,12.514 0 0 0 -12.5,-12.5 z" />
  <path
     id="path98"
     fill="#232020"
     d="m 12.5,84.969 h 14.381 a 2.5,2.5 0 0 0 0,-5 H 12.5 A 12.514,12.514 0 0 0 0,92.469 v 39.784 a 12.514,12.514 0 0 0 12.5,12.5 h 8.348 l -8.816,8.816 a 2.5,2.5 0 0 0 3.536,3.535 l 13.08,-13.083 a 2.5,2.5 0 0 0 0,-3.535 l -13.08,-13.081 a 2.5,2.5 0 0 0 -3.536,3.535 l 8.814,8.813 H 12.5 A 7.508,7.508 0 0 1 5,132.253 V 92.469 a 7.508,7.508 0 0 1 7.5,-7.5 z" />
  <g
     transform="translate(-20.452,-45.531)"
     id="g124"
     fill="#f67164">
    <path
       id="path100"
       d="m 156.9,64.32 h -33.962 a 2.5,2.5 0 0 1 0,-5 H 156.9 a 2.5,2.5 0 1 1 0,5 z" />
    <path
       id="path102"
       d="M 112.938,64.32 H 93.729 a 2.5,2.5 0 0 1 0,-5 h 19.209 a 2.5,2.5 0 1 1 0,5 z" />
    <path
       id="path104"
       d="m 162.271,75.111 h -16.333 a 2.5,2.5 0 0 1 0,-5 h 16.333 a 2.5,2.5 0 0 1 0,5 z" />
    <path
       id="path106"
       d="M 135.938,75.111 H 93.729 a 2.5,2.5 0 0 1 0,-5 h 42.209 a 2.5,2.5 0 0 1 0,5 z" />
    <path
       id="path108"
       d="m 156.9,125.1 h -33.962 a 2.5,2.5 0 0 1 0,-5 H 156.9 a 2.5,2.5 0 0 1 0,5 z" />
    <path
       id="path110"
       d="M 112.938,125.1 H 93.729 a 2.5,2.5 0 0 1 0,-5 h 19.209 a 2.5,2.5 0 0 1 0,5 z" />
    <path
       id="path112"
       d="m 162.271,135.9 h -16.333 a 2.5,2.5 0 0 1 0,-5 h 16.333 a 2.5,2.5 0 0 1 0,5 z" />
    <path
       id="path114"
       d="M 135.938,135.9 H 93.729 a 2.5,2.5 0 0 1 0,-5 h 42.209 a 2.5,2.5 0 0 1 0,5 z" />
    <path
       id="path116"
       d="m 156.9,185.889 h -33.962 a 2.5,2.5 0 1 1 0,-5 H 156.9 a 2.5,2.5 0 0 1 0,5 z" />
    <path
       id="path118"
       d="M 112.938,185.889 H 93.729 a 2.5,2.5 0 1 1 0,-5 h 19.209 a 2.5,2.5 0 0 1 0,5 z" />
    <path
       id="path120"
       d="m 162.271,196.68 h -16.333 a 2.5,2.5 0 0 1 0,-5 h 16.333 a 2.5,2.5 0 1 1 0,5 z" />
    <path
       id="path122"
       d="M 135.938,196.68 H 93.729 a 2.5,2.5 0 1 1 0,-5 h 42.209 a 2.5,2.5 0 0 1 0,5 z" />
  </g>
</svg>
