<?xml version="1.0" standalone="no"?>
<!DOCTYPE svg PUBLIC "-//W3C//DTD SVG 20010904//EN"
 "http://www.w3.org/TR/2001/REC-SVG-20010904/DTD/svg10.dtd">
<svg version="1.0" xmlns="http://www.w3.org/2000/svg"
 width="512.000000pt" height="512.000000pt" viewBox="0 0 512.000000 512.000000"
 preserveAspectRatio="xMidYMid meet">

<g transform="translate(0.000000,512.000000) scale(0.100000,-0.100000)"
fill="#232020" stroke="none">
<path d="M2427 5104 c-89 -19 -165 -53 -241 -108 -33 -24 -509 -494 -1056
-1043 -1046 -1049 -1032 -1034 -1088 -1181 -24 -61 -26 -80 -26 -212 0 -132 2
-151 26 -212 56 -148 40 -130 1108 -1199 774 -775 1029 -1025 1075 -1052 33
-19 96 -48 140 -63 70 -25 94 -28 200 -28 103 0 131 4 202 28 48 15 113 47
155 76 54 36 332 308 1079 1057 l1007 1008 41 85 c54 112 71 184 71 300 0 152
-39 274 -125 389 -51 69 -2013 2023 -2068 2060 -144 97 -328 132 -500 95z
m288 -235 c30 -11 81 -40 113 -64 61 -46 1973 -1968 2009 -2020 79 -114 83
-312 7 -440 -13 -22 -479 -495 -1036 -1051 -1110 -1107 -1034 -1040 -1185
-1065 -93 -16 -197 6 -280 60 -37 25 -421 403 -1054 1037 -1144 1148 -1054
1042 -1054 1235 0 101 1 108 37 180 35 70 74 111 805 842 l768 767 129 -129
128 -129 -26 -44 c-34 -59 -66 -185 -66 -263 0 -81 32 -203 70 -270 67 -118
183 -214 305 -255 l65 -22 0 -567 0 -568 -42 -12 c-142 -42 -277 -158 -342
-293 -155 -326 34 -708 389 -783 88 -18 132 -18 220 0 367 77 553 473 379 806
-63 120 -191 228 -314 265 l-60 18 0 567 0 567 53 17 c28 9 72 28 97 41 l44
25 170 -170 170 -170 -26 -48 c-43 -80 -62 -158 -62 -263 0 -153 54 -282 163
-390 111 -110 233 -160 391 -160 158 0 280 50 390 160 110 110 161 234 161
390 0 159 -51 282 -165 396 -103 103 -246 164 -386 164 -70 0 -179 -27 -249
-61 l-63 -31 -169 168 -168 169 33 68 c105 214 63 462 -108 633 -173 173 -424
214 -641 104 l-59 -31 -128 128 -128 128 157 158 c166 166 223 206 323 227 63
13 170 4 235 -21z m2 -789 c71 -35 115 -82 152 -160 21 -45 26 -70 26 -135 0
-71 -4 -89 -33 -147 -37 -76 -82 -120 -162 -157 -78 -37 -191 -37 -270 0 -72
34 -136 97 -168 167 -37 80 -38 193 -1 272 43 92 131 166 226 190 65 16 161 4
230 -30z m1091 -1102 c64 -24 139 -94 172 -163 21 -42 25 -64 25 -145 0 -83
-3 -101 -27 -145 -107 -205 -374 -247 -535 -85 -63 62 -87 120 -91 215 -5 98
19 171 77 237 93 105 237 138 379 86z m-1124 -1109 c73 -27 148 -96 183 -167
37 -77 40 -202 6 -274 -78 -169 -278 -246 -443 -172 -140 63 -221 219 -191
366 24 113 118 220 221 253 67 21 160 18 224 -6z"/>
</g>
</svg>
