<svg xmlns="http://www.w3.org/2000/svg" width="75" height="81" viewBox="0 0 75 81">
  <g fill="none" fill-rule="evenodd">
    <path stroke="#E3e3e3" stroke-width="4" d="M5.06671552,22 L68.9332845,22 C68.0182373,8.62363379 57.6756592,2 37,2 C16.3243408,2 5.98176266,8.62363379 5.06671552,22 Z"/>
    <path fill="#E3e3e3" fill-rule="nonzero" d="M18.0117188,24 L18.0117188,49.5244141 C18.0117188,56.5502294 14.6571787,61.8317147 10.0203761,62.2347952 C5.14012133,62.6590391 1.7870285,57.6945419 1.6850115,49.8922168 L1.68261719,49.5244141 L5.68261719,49.5244141 C5.68261719,55.5035402 7.61179422,58.4290894 9.67395981,58.249824 C11.834206,58.0620323 13.9190943,54.8493793 14.0087207,49.8596797 L14.0117188,49.5244141 L14.0117188,24 L18.0117188,24 Z"/>
    <circle cx="4" cy="48" r="2" stroke="#E3e3e3" stroke-width="4"/>
    <path fill="#E3e3e3" fill-rule="nonzero" d="M73.3291016,24 L73.3291016,49.5244141 C73.3291016,56.5502294 69.9745615,61.8317147 65.3377589,62.2347952 C60.4575041,62.6590391 57.1044113,57.6945419 57.0023943,49.8922168 L57,49.5244141 L61,49.5244141 C61,55.5035402 62.929177,58.4290894 64.9913426,58.249824 C67.1515888,58.0620323 69.2364771,54.8493793 69.3261035,49.8596797 L69.3291016,49.5244141 L69.3291016,24 L73.3291016,24 Z" transform="matrix(-1 0 0 1 130.33 0)"/>
    <circle cx="71" cy="48" r="2" stroke="#E3e3e3" stroke-width="4"/>
    <circle cx="26" cy="77" r="2" stroke="#E3e3e3" stroke-width="4"/>
    <polygon fill="#E3e3e3" fill-rule="nonzero" points="28 23 28 75 24 75 24 23"/>
    <circle cx="37" cy="67" r="2" stroke="#E3e3e3" stroke-width="4"/>
    <polygon fill="#E3e3e3" fill-rule="nonzero" points="39 23 39 65 35 65 35 23"/>
    <circle cx="49" cy="55" r="2" stroke="#E3e3e3" stroke-width="4"/>
    <polygon fill="#E3e3e3" fill-rule="nonzero" points="51 23 51 53 47 53 47 23"/>
    <polygon fill="#FF7163" points="38.741 -4 38.741 32 34.741 32 34.741 -4" transform="rotate(-90 36.741 14)"/>
  </g>
</svg>
